<svg id="Layer_1" enable-background="new 0 0 511.992 511.992" height="512" viewBox="0 0 511.992 511.992" width="512" xmlns="http://www.w3.org/2000/svg"><g><g clip-rule="evenodd" fill="#ffbebc" fill-rule="evenodd"><path d="m362.003 15.436c-3.63 69.01 66.201 138.434 134.763 134.695 26.667-89.531-45.876-161.505-134.763-134.695z"/><path d="m110.086 245.431 154.949-154.944-.422.113-207.887 55.701c-16.132 4.3-21.256 24.54-9.715 36.058z"/><path d="m421.655 247.1-154.95 154.945 63.074 63.073c11.518 11.541 31.759 6.418 36.059-9.714l53.21-198.576z"/></g><path d="m480.228 31.915c-22.759-22.758-54.849-33.983-90.34-31.601-33.255 2.229-65.162 16.342-87.54 38.719l-227.809 227.802c-3.874 3.724-3.874 10.419 0 14.143l10.961 10.961-32.987 20.991c-4.667 2.827-6.063 9.546-2.945 13.995-9.655 3.989-18.463 9.86-25.992 17.389-20.153 20.151-28.099 49.792-20.739 77.355.923 3.458 3.624 6.158 7.082 7.082 27.278 7.34 57.191-.511 77.357-20.737 7.533-7.533 13.403-16.339 17.391-25.992 1.936 1.299 4.319 1.886 6.648 1.627 3.015-.331 5.717-2.013 7.345-4.572l20.992-32.987 26.392 26.391-32.988 20.991c-4.667 2.827-6.063 9.546-2.945 13.995-9.655 3.989-18.463 9.86-25.993 17.389-20.152 20.152-28.098 49.793-20.737 77.355.923 3.458 3.624 6.158 7.082 7.082 27.278 7.34 57.191-.511 77.356-20.737 7.533-7.533 13.404-16.338 17.391-25.992 1.936 1.299 4.319 1.886 6.648 1.626 3.015-.331 5.717-2.013 7.345-4.572l20.992-32.986 10.962 10.962c1.953 1.953 4.512 2.929 7.071 2.929s5.119-.977 7.071-2.929l227.81-227.802c46.056-43.895 54.265-133.11 7.119-177.877zm-407.094 361.955c-13.708 13.708-33.274 19.887-52.223 16.806-3.081-18.95 3.099-38.514 16.807-52.22 7.653-7.653 17.062-13.023 27.422-15.689l23.683 23.682c-2.666 10.36-8.033 19.765-15.689 27.421zm35.345-36.048-34.712-34.71 26.221-16.685 25.177 25.176zm45.198 116.589c-13.709 13.708-33.271 19.888-52.223 16.806-3.081-18.949 3.099-38.513 16.806-52.22 7.654-7.653 17.063-13.023 27.423-15.689l23.683 23.683c-2.666 10.36-8.032 19.764-15.689 27.42zm35.346-36.048-34.712-34.71 26.22-16.685 25.177 25.176zm49.205-21.984-142.476-142.472 28.572-28.571 64.167 64.165-7.167 7.166c-9.039 9.688 4.465 23.176 14.142 14.143l7.167-7.167 64.167 64.165zm253.689-296.116c-1.69 28.659-13.7 56.135-32.95 75.384l-178.024 178.019-64.167-64.165 83.854-83.852 35.644 35.642c3.905 3.905 10.236 3.905 14.142 0l42.714-42.713c3.874-3.724 3.874-10.419 0-14.143l-85.428-85.426c-3.904-3.905-10.236-3.905-14.142 0l-42.715 42.713c-3.874 3.724-3.874 10.419 0 14.143l35.643 35.641-83.854 83.852-64.167-64.165 178.023-178.017c36.989-36.989 108.823-47.892 149.595-7.119 18.396 18.395 27.57 44.748 25.832 74.206zm-219.858 48.531 28.572-28.571 71.286 71.284-28.572 28.571z" fill="#020288"/></g></svg>