<svg width="187" height="49" viewBox="0 0 187 49" fill="none" xmlns="http://www.w3.org/2000/svg">
<g filter="url(#filter0_d)">
<path d="M8.296 39C7.624 39 7.032 38.76 6.52 38.28C6.04 37.8 5.8 37.208 5.8 36.504V4.008C5.8 3.304 6.04 2.712 6.52 2.232C7.032 1.752 7.624 1.512 8.296 1.512C9 1.512 9.592 1.752 10.072 2.232C10.552 2.712 10.792 3.304 10.792 4.008V18.408L26.68 2.52C27.064 2.136 27.416 1.88 27.736 1.752C28.056 1.592 28.392 1.512 28.744 1.512C29.544 1.512 30.12 1.752 30.472 2.232C30.824 2.712 30.952 3.288 30.856 3.96C30.76 4.6 30.456 5.192 29.944 5.736L17.704 18.024L30.184 35.016C30.568 35.56 30.728 36.152 30.664 36.792C30.6 37.4 30.376 37.928 29.992 38.376C29.608 38.792 29.096 39 28.456 39C27.56 39 26.872 38.648 26.392 37.944L14.248 21.48L10.792 24.936V36.504C10.792 37.208 10.552 37.8 10.072 38.28C9.592 38.76 9 39 8.296 39ZM46.3803 39.192C43.7883 39.192 41.5003 38.632 39.5163 37.512C37.5323 36.36 35.9643 34.792 34.8123 32.808C33.6923 30.792 33.1323 28.488 33.1323 25.896C33.1323 23.272 33.6923 20.968 34.8123 18.984C35.9643 16.968 37.5323 15.4 39.5163 14.28C41.5003 13.128 43.7883 12.552 46.3803 12.552C48.9403 12.552 51.2123 13.128 53.1963 14.28C55.1803 15.4 56.7323 16.968 57.8523 18.984C59.0043 20.968 59.5803 23.272 59.5803 25.896C59.5803 28.488 59.0203 30.792 57.9003 32.808C56.7803 34.792 55.2283 36.36 53.2443 37.512C51.2603 38.632 48.9723 39.192 46.3803 39.192ZM46.3803 34.872C48.0443 34.872 49.5163 34.488 50.7963 33.72C52.0763 32.952 53.0683 31.896 53.7723 30.552C54.5083 29.208 54.8763 27.656 54.8763 25.896C54.8763 24.136 54.5083 22.584 53.7723 21.24C53.0683 19.864 52.0763 18.792 50.7963 18.024C49.5163 17.256 48.0443 16.872 46.3803 16.872C44.7163 16.872 43.2443 17.256 41.9643 18.024C40.6843 18.792 39.6763 19.864 38.9403 21.24C38.2043 22.584 37.8363 24.136 37.8363 25.896C37.8363 27.656 38.2043 29.208 38.9403 30.552C39.6763 31.896 40.6843 32.952 41.9643 33.72C43.2443 34.488 44.7163 34.872 46.3803 34.872ZM78.7709 39.192C76.2749 39.192 74.0189 38.616 72.0029 37.464C70.0189 36.28 68.4349 34.68 67.2509 32.664C66.0989 30.648 65.5229 28.376 65.5229 25.848C65.5229 23.32 66.0509 21.064 67.1069 19.08C68.1949 17.064 69.6669 15.48 71.5229 14.328C73.3789 13.144 75.4749 12.552 77.8109 12.552C79.6989 12.552 81.4429 12.952 83.0429 13.752C84.6429 14.52 85.9869 15.576 87.0749 16.92V3.96C87.0749 3.224 87.2989 2.632 87.7469 2.184C88.2269 1.736 88.8189 1.512 89.5229 1.512C90.2589 1.512 90.8509 1.736 91.2989 2.184C91.7469 2.632 91.9709 3.224 91.9709 3.96V25.848C91.9709 28.376 91.3789 30.648 90.1949 32.664C89.0429 34.68 87.4749 36.28 85.4909 37.464C83.5069 38.616 81.2669 39.192 78.7709 39.192ZM78.7709 34.872C80.4029 34.872 81.8589 34.488 83.1389 33.72C84.4189 32.92 85.4269 31.832 86.1629 30.456C86.8989 29.08 87.2669 27.544 87.2669 25.848C87.2669 24.12 86.8989 22.584 86.1629 21.24C85.4269 19.896 84.4189 18.84 83.1389 18.072C81.8589 17.272 80.4029 16.872 78.7709 16.872C77.1709 16.872 75.7149 17.272 74.4029 18.072C73.1229 18.84 72.0989 19.896 71.3309 21.24C70.5949 22.584 70.2269 24.12 70.2269 25.848C70.2269 27.544 70.5949 29.08 71.3309 30.456C72.0989 31.832 73.1229 32.92 74.4029 33.72C75.7149 34.488 77.1709 34.872 78.7709 34.872ZM112.953 39.192C110.297 39.192 107.929 38.632 105.849 37.512C103.801 36.36 102.185 34.792 101.001 32.808C99.8489 30.792 99.2729 28.488 99.2729 25.896C99.2729 23.272 99.8169 20.968 100.905 18.984C102.025 16.968 103.561 15.4 105.513 14.28C107.465 13.128 109.705 12.552 112.233 12.552C114.729 12.552 116.873 13.112 118.665 14.232C120.457 15.32 121.817 16.84 122.745 18.792C123.705 20.712 124.185 22.936 124.185 25.464C124.185 26.072 123.977 26.584 123.561 27C123.145 27.384 122.617 27.576 121.977 27.576H103.737C104.089 29.784 105.097 31.592 106.761 33C108.457 34.376 110.521 35.064 112.953 35.064C113.945 35.064 114.953 34.888 115.977 34.536C117.033 34.152 117.881 33.72 118.521 33.24C119.001 32.888 119.513 32.712 120.057 32.712C120.633 32.68 121.129 32.84 121.545 33.192C122.089 33.672 122.377 34.2 122.409 34.776C122.441 35.352 122.185 35.848 121.641 36.264C120.553 37.128 119.193 37.832 117.561 38.376C115.961 38.92 114.425 39.192 112.953 39.192ZM112.233 16.68C109.865 16.68 107.961 17.336 106.521 18.648C105.081 19.96 104.169 21.656 103.785 23.736H119.769C119.481 21.688 118.697 20.008 117.417 18.696C116.137 17.352 114.409 16.68 112.233 16.68ZM132.829 39C131.229 39 130.429 38.2 130.429 36.6V15.144C130.429 13.544 131.229 12.744 132.829 12.744C134.429 12.744 135.229 13.544 135.229 15.144V16.056C136.189 14.936 137.357 14.056 138.733 13.416C140.141 12.776 141.661 12.456 143.293 12.456C145.213 12.456 146.637 12.776 147.565 13.416C148.525 14.024 148.893 14.76 148.669 15.624C148.509 16.296 148.189 16.744 147.709 16.968C147.229 17.16 146.669 17.192 146.029 17.064C143.981 16.648 142.141 16.616 140.509 16.968C138.877 17.32 137.581 17.976 136.621 18.936C135.693 19.896 135.229 21.112 135.229 22.584V36.6C135.229 38.2 134.429 39 132.829 39ZM154.109 39C153.373 39 152.813 38.776 152.429 38.328C152.045 37.848 151.853 37.304 151.853 36.696C151.853 36.056 152.045 35.48 152.429 34.968L163.613 20.088L153.053 5.448C152.669 4.936 152.509 4.376 152.573 3.768C152.637 3.16 152.861 2.632 153.245 2.184C153.661 1.736 154.205 1.512 154.877 1.512C155.709 1.512 156.301 1.752 156.653 2.232L166.973 16.536L177.725 2.232C178.173 1.752 178.765 1.512 179.501 1.512C180.173 1.512 180.701 1.72 181.085 2.136C181.469 2.552 181.677 3.064 181.709 3.672C181.741 4.28 181.565 4.872 181.181 5.448L170.237 20.04L180.989 34.968C181.373 35.48 181.549 36.056 181.517 36.696C181.485 37.336 181.261 37.88 180.845 38.328C180.461 38.776 179.917 39 179.213 39C178.413 39 177.773 38.696 177.293 38.088L166.877 23.64L155.837 38.28C155.357 38.76 154.781 39 154.109 39Z" fill="white"/>
<path d="M6.52 38.28L5.81289 38.9871L5.8243 38.9985L5.83606 39.0095L6.52 38.28ZM6.52 2.232L5.83606 1.50246L5.8243 1.51349L5.81289 1.52489L6.52 2.232ZM10.792 18.408H9.792V20.8222L11.4991 19.1151L10.792 18.408ZM26.68 2.52L25.9729 1.81289L25.9729 1.81289L26.68 2.52ZM27.736 1.752L28.1074 2.68048L28.146 2.66503L28.1832 2.64643L27.736 1.752ZM30.856 3.96L31.845 4.10834L31.846 4.10142L30.856 3.96ZM29.944 5.736L30.6525 6.44172L30.6625 6.43168L30.6722 6.42136L29.944 5.736ZM17.704 18.024L16.9955 17.3183L16.3908 17.9254L16.898 18.616L17.704 18.024ZM30.184 35.016L31.001 34.4393L30.9955 34.4316L30.99 34.424L30.184 35.016ZM30.664 36.792L31.6585 36.8967L31.659 36.8915L30.664 36.792ZM29.992 38.376L30.7268 39.0543L30.7393 39.0408L30.7513 39.0268L29.992 38.376ZM26.392 37.944L27.2182 37.3807L27.2078 37.3653L27.1968 37.3504L26.392 37.944ZM14.248 21.48L15.0528 20.8864L14.3628 19.951L13.5409 20.7729L14.248 21.48ZM10.792 24.936L10.0849 24.2289L9.792 24.5218V24.936H10.792ZM8.296 38C7.89023 38 7.53967 37.8652 7.20394 37.5505L5.83606 39.0095C6.52433 39.6548 7.35777 40 8.296 40V38ZM7.22711 37.5729C6.94227 37.2881 6.8 36.9538 6.8 36.504H4.8C4.8 37.4622 5.13773 38.3119 5.81289 38.9871L7.22711 37.5729ZM6.8 36.504V4.008H4.8V36.504H6.8ZM6.8 4.008C6.8 3.55823 6.94227 3.22394 7.22711 2.93911L5.81289 1.52489C5.13773 2.20005 4.8 3.04976 4.8 4.008H6.8ZM7.20394 2.96154C7.53967 2.64679 7.89023 2.512 8.296 2.512V0.511999C7.35777 0.511999 6.52433 0.857206 5.83606 1.50246L7.20394 2.96154ZM8.296 2.512C8.74577 2.512 9.08006 2.65427 9.36489 2.93911L10.7791 1.52489C10.1039 0.84973 9.25423 0.511999 8.296 0.511999V2.512ZM9.36489 2.93911C9.64973 3.22394 9.792 3.55823 9.792 4.008H11.792C11.792 3.04976 11.4543 2.20005 10.7791 1.52489L9.36489 2.93911ZM9.792 4.008V18.408H11.792V4.008H9.792ZM11.4991 19.1151L27.3871 3.2271L25.9729 1.81289L10.0849 17.7009L11.4991 19.1151ZM27.3871 3.22711C27.7244 2.88983 27.9646 2.7376 28.1074 2.68048L27.3646 0.823523C26.8674 1.0224 26.4036 1.38216 25.9729 1.81289L27.3871 3.22711ZM28.1832 2.64643C28.3667 2.55467 28.5499 2.512 28.744 2.512V0.511999C28.2341 0.511999 27.7453 0.629325 27.2888 0.857572L28.1832 2.64643ZM28.744 2.512C29.3444 2.512 29.5627 2.68308 29.6656 2.82336L31.2784 1.64064C30.6773 0.820914 29.7436 0.511999 28.744 0.511999V2.512ZM29.6656 2.82336C29.8409 3.06244 29.9307 3.36605 29.8661 3.81858L31.846 4.10142C31.9733 3.20994 31.8071 2.36155 31.2784 1.64064L29.6656 2.82336ZM29.8671 3.81166C29.8057 4.22044 29.6105 4.63132 29.2158 5.05064L30.6722 6.42136C31.3015 5.75268 31.7143 4.97956 31.8449 4.10834L29.8671 3.81166ZM29.2355 5.03028L16.9955 17.3183L18.4125 18.7297L30.6525 6.44172L29.2355 5.03028ZM16.898 18.616L29.378 35.608L30.99 34.424L18.51 17.432L16.898 18.616ZM29.367 35.5927C29.6176 35.9476 29.7081 36.3011 29.669 36.6925L31.659 36.8915C31.7479 36.0029 31.5184 35.1724 31.001 34.4393L29.367 35.5927ZM29.6695 36.6873C29.6259 37.1014 29.4798 37.437 29.2327 37.7252L30.7513 39.0268C31.2722 38.419 31.5741 37.6986 31.6585 36.8967L29.6695 36.6873ZM29.2572 37.6977C29.0882 37.8808 28.8571 38 28.456 38V40C29.3349 40 30.1278 39.7032 30.7268 39.0543L29.2572 37.6977ZM28.456 38C27.8704 38 27.5008 37.7951 27.2182 37.3807L25.5658 38.5073C26.2432 39.5009 27.2496 40 28.456 40V38ZM27.1968 37.3504L15.0528 20.8864L13.4432 22.0736L25.5872 38.5376L27.1968 37.3504ZM13.5409 20.7729L10.0849 24.2289L11.4991 25.6431L14.9551 22.1871L13.5409 20.7729ZM9.792 24.936V36.504H11.792V24.936H9.792ZM9.792 36.504C9.792 36.9538 9.64973 37.2881 9.36489 37.5729L10.7791 38.9871C11.4543 38.3119 11.792 37.4622 11.792 36.504H9.792ZM9.36489 37.5729C9.08006 37.8577 8.74577 38 8.296 38V40C9.25423 40 10.1039 39.6623 10.7791 38.9871L9.36489 37.5729ZM39.5163 37.512L39.0141 38.3769L39.0247 38.3828L39.5163 37.512ZM34.8122 32.808L33.9381 33.2936L33.9427 33.3019L33.9475 33.3101L34.8122 32.808ZM34.8122 18.984L33.944 18.4879L33.9414 18.4924L34.8122 18.984ZM39.5163 14.28L40.0079 15.1509L40.0184 15.1448L39.5163 14.28ZM53.1963 14.28L52.6941 15.1449L52.7047 15.1508L53.1963 14.28ZM57.8522 18.984L56.9781 19.4696L56.9827 19.4779L56.9875 19.4861L57.8522 18.984ZM57.9002 32.808L58.7711 33.2996L58.7744 33.2936L57.9002 32.808ZM53.2443 37.512L53.7359 38.3829L53.7464 38.3768L53.2443 37.512ZM50.7962 33.72L50.2818 32.8625L50.7962 33.72ZM53.7723 30.552L52.8952 30.0717L52.8907 30.0798L52.8864 30.088L53.7723 30.552ZM53.7723 21.24L52.882 21.6955L52.8884 21.708L52.8952 21.7203L53.7723 21.24ZM50.7962 18.024L50.2818 18.8815L50.7962 18.024ZM41.9642 18.024L42.4787 18.8815L41.9642 18.024ZM38.9403 21.24L39.8174 21.7203L39.822 21.7117L38.9403 21.24ZM38.9403 30.552L39.8173 30.0717L38.9403 30.552ZM41.9642 33.72L41.4498 34.5775L41.9642 33.72ZM46.3803 38.192C43.9364 38.192 41.8222 37.6654 40.0078 36.6412L39.0247 38.3828C41.1783 39.5986 43.6401 40.192 46.3803 40.192V38.192ZM40.0184 36.6472C38.1847 35.5825 36.7417 34.1395 35.677 32.3059L33.9475 33.3101C35.1868 35.4445 36.8798 37.1375 39.0141 38.3768L40.0184 36.6472ZM35.6864 32.3224C34.6588 30.4726 34.1323 28.3395 34.1323 25.896H32.1322C32.1322 28.6365 32.7257 31.1114 33.9381 33.2936L35.6864 32.3224ZM34.1323 25.896C34.1323 23.4178 34.6599 21.2881 35.6831 19.4756L33.9414 18.4924C32.7246 20.6479 32.1322 23.1262 32.1322 25.896H34.1323ZM35.6805 19.4801C36.7448 17.6176 38.184 16.1804 40.0078 15.1508L39.0247 13.4092C36.8805 14.6196 35.1837 16.3184 33.944 18.4879L35.6805 19.4801ZM40.0184 15.1448C41.8309 14.0924 43.9413 13.552 46.3803 13.552V11.552C43.6352 11.552 41.1696 12.1636 39.0141 13.4152L40.0184 15.1448ZM46.3803 13.552C48.7848 13.552 50.8798 14.0913 52.6941 15.1448L53.6984 13.4152C51.5447 12.1647 49.0957 11.552 46.3803 11.552V13.552ZM52.7047 15.1508C54.526 16.179 55.9465 17.6128 56.9781 19.4696L58.7264 18.4984C57.518 16.3232 55.8345 14.621 53.6878 13.4092L52.7047 15.1508ZM56.9875 19.4861C58.0388 21.2968 58.5803 23.4226 58.5803 25.896H60.5803C60.5803 23.1214 59.9697 20.6392 58.717 18.4819L56.9875 19.4861ZM58.5803 25.896C58.5803 28.3395 58.0537 30.4726 57.0261 32.3224L58.7744 33.2936C59.9868 31.1114 60.5803 28.6365 60.5803 25.896H58.5803ZM57.0294 32.3164C55.9976 34.1443 54.5733 35.5839 52.7421 36.6472L53.7464 38.3768C55.8832 37.1361 57.5629 35.4397 58.7711 33.2996L57.0294 32.3164ZM52.7527 36.6412C50.9383 37.6654 48.8241 38.192 46.3803 38.192V40.192C49.1204 40.192 51.5822 39.5986 53.7358 38.3828L52.7527 36.6412ZM46.3803 35.872C48.2041 35.872 49.858 35.4491 51.3107 34.5775L50.2818 32.8625C49.1745 33.5269 47.8844 33.872 46.3803 33.872V35.872ZM51.3107 34.5775C52.751 33.7133 53.8703 32.52 54.6581 31.016L52.8864 30.088C52.2662 31.272 51.4015 32.1907 50.2818 32.8625L51.3107 34.5775ZM54.6493 31.0323C55.4773 29.5204 55.8763 27.7987 55.8763 25.896H53.8763C53.8763 27.5133 53.5392 28.8956 52.8952 30.0717L54.6493 31.0323ZM55.8763 25.896C55.8763 23.9933 55.4773 22.2716 54.6493 20.7597L52.8952 21.7203C53.5392 22.8964 53.8763 24.2787 53.8763 25.896H55.8763ZM54.6625 20.7845C53.8765 19.2482 52.757 18.0343 51.3107 17.1665L50.2818 18.8815C51.3955 19.5497 52.26 20.4798 52.882 21.6955L54.6625 20.7845ZM51.3107 17.1665C49.858 16.2949 48.2041 15.872 46.3803 15.872V17.872C47.8844 17.872 49.1745 18.2171 50.2818 18.8815L51.3107 17.1665ZM46.3803 15.872C44.5564 15.872 42.9025 16.2949 41.4498 17.1665L42.4787 18.8815C43.586 18.2171 44.8761 17.872 46.3803 17.872V15.872ZM41.4498 17.1665C40.0075 18.0319 38.8757 19.2405 38.0585 20.7683L39.822 21.7117C40.4768 20.4875 41.361 19.5521 42.4787 18.8815L41.4498 17.1665ZM38.0632 20.7597C37.2352 22.2716 36.8363 23.9933 36.8363 25.896H38.8363C38.8363 24.2787 39.1733 22.8964 39.8173 21.7203L38.0632 20.7597ZM36.8363 25.896C36.8363 27.7987 37.2352 29.5204 38.0632 31.0323L39.8173 30.0717C39.1733 28.8956 38.8363 27.5133 38.8363 25.896H36.8363ZM38.0632 31.0323C38.882 32.5277 40.0134 33.7157 41.4498 34.5775L42.4787 32.8625C41.3551 32.1883 40.4705 31.2643 39.8173 30.0717L38.0632 31.0323ZM41.4498 34.5775C42.9025 35.4492 44.5564 35.872 46.3803 35.872V33.872C44.8761 33.872 43.586 33.5269 42.4787 32.8625L41.4498 34.5775ZM72.0029 37.464L71.4904 38.3227L71.4985 38.3276L71.5067 38.3322L72.0029 37.464ZM67.2509 32.664L66.3826 33.1602L66.3886 33.1704L67.2509 32.664ZM67.1069 19.08L66.2268 18.6051L66.2241 18.6101L67.1069 19.08ZM71.5229 14.328L72.0503 15.1777L72.0607 15.1711L71.5229 14.328ZM83.0429 13.752L82.5957 14.6464L82.6029 14.65L82.6101 14.6535L83.0429 13.752ZM87.0749 16.92L86.2976 17.5492L88.0749 19.7446V16.92H87.0749ZM87.7469 2.184L87.0646 1.45294L87.052 1.4647L87.0398 1.47689L87.7469 2.184ZM90.1949 32.664L89.3325 32.1575L89.3266 32.1679L90.1949 32.664ZM85.4909 37.464L85.993 38.3288L86.0033 38.3227L85.4909 37.464ZM83.1389 33.72L83.6534 34.5775L83.6612 34.5728L83.6689 34.568L83.1389 33.72ZM86.1629 30.456L85.2811 29.9843L86.1629 30.456ZM86.1629 21.24L85.2858 21.7203L86.1629 21.24ZM83.1389 18.072L82.6089 18.92L82.6166 18.9248L82.6244 18.9295L83.1389 18.072ZM74.4029 18.072L74.9174 18.9295L74.9235 18.9258L74.4029 18.072ZM71.3309 21.24L70.4626 20.7439L70.4581 20.7517L70.4538 20.7597L71.3309 21.24ZM71.3309 30.456L70.4491 30.9277L70.4533 30.9355L70.4577 30.9434L71.3309 30.456ZM74.4029 33.72L73.8729 34.568L73.8852 34.5757L73.8977 34.583L74.4029 33.72ZM78.7709 38.192C76.4354 38.192 74.3526 37.655 72.499 36.5958L71.5067 38.3322C73.6851 39.577 76.1143 40.192 78.7709 40.192V38.192ZM72.5153 36.6053C70.6775 35.5085 69.2131 34.0304 68.1132 32.1576L66.3886 33.1704C67.6567 35.3296 69.3603 37.0515 71.4904 38.3227L72.5153 36.6053ZM68.1191 32.1679C67.061 30.3162 66.5229 28.2179 66.5229 25.848H64.5229C64.5229 28.5341 65.1367 30.9798 66.3826 33.1601L68.1191 32.1679ZM66.5229 25.848C66.5229 23.4631 67.0198 21.3719 67.9896 19.5498L66.2241 18.6101C65.082 20.7561 64.5229 23.1769 64.5229 25.848H66.5229ZM67.9869 19.5549C68.9962 17.6847 70.3498 16.2331 72.0502 15.1776L70.9955 13.4784C68.984 14.7269 67.3935 16.4433 66.2269 18.6051L67.9869 19.5549ZM72.0607 15.1711C73.7461 14.0959 75.6532 13.552 77.8109 13.552V11.552C75.2965 11.552 73.0117 12.1921 70.9851 13.4849L72.0607 15.1711ZM77.8109 13.552C79.5525 13.552 81.1422 13.9197 82.5957 14.6464L83.4901 12.8576C81.7435 11.9843 79.8453 11.552 77.8109 11.552V13.552ZM82.6101 14.6535C84.0802 15.3591 85.3054 16.3235 86.2976 17.5492L87.8521 16.2908C86.6684 14.8285 85.2056 13.6809 83.4756 12.8505L82.6101 14.6535ZM88.0749 16.92V3.96H86.0749V16.92H88.0749ZM88.0749 3.96C88.0749 3.44286 88.2239 3.12115 88.454 2.89111L87.0398 1.47689C86.3738 2.14285 86.0749 3.00514 86.0749 3.96H88.0749ZM88.4292 2.91505C88.7099 2.65308 89.0521 2.512 89.5229 2.512V0.511999C88.5856 0.511999 87.7439 0.818921 87.0646 1.45294L88.4292 2.91505ZM89.5229 2.512C90.04 2.512 90.3617 2.66106 90.5918 2.89111L92.006 1.47689C91.34 0.810938 90.4777 0.511999 89.5229 0.511999V2.512ZM90.5918 2.89111C90.8218 3.12115 90.9709 3.44286 90.9709 3.96H92.9709C92.9709 3.00514 92.6719 2.14285 92.006 1.47689L90.5918 2.89111ZM90.9709 3.96V25.848H92.9709V3.96H90.9709ZM90.9709 25.848C90.9709 28.2129 90.4191 30.3075 89.3326 32.1576L91.0572 33.1704C92.3386 30.9885 92.9709 28.5391 92.9709 25.848H90.9709ZM89.3266 32.1679C88.2596 34.0352 86.8138 35.51 84.9784 36.6053L86.0033 38.3227C88.1359 37.05 89.8262 35.3248 91.0631 33.1601L89.3266 32.1679ZM84.9887 36.5992C83.1705 37.6549 81.1065 38.192 78.7709 38.192V40.192C81.4273 40.192 83.8432 39.5771 85.993 38.3288L84.9887 36.5992ZM78.7709 35.872C80.5667 35.872 82.2036 35.4473 83.6534 34.5775L82.6244 32.8625C81.5141 33.5287 80.2391 33.872 78.7709 33.872V35.872ZM83.6689 34.568C85.1021 33.6722 86.2292 32.4522 87.0447 30.9277L85.2811 29.9843C84.6246 31.2118 83.7356 32.1678 82.6089 32.872L83.6689 34.568ZM87.0447 30.9277C87.8649 29.3942 88.2669 27.6939 88.2669 25.848H86.2669C86.2669 27.3941 85.9329 28.7658 85.2811 29.9843L87.0447 30.9277ZM88.2669 25.848C88.2669 23.9739 87.8665 22.2689 87.04 20.7597L85.2858 21.7203C85.9313 22.8991 86.2669 24.2661 86.2669 25.848H88.2669ZM87.04 20.7597C86.2211 19.2643 85.0897 18.0763 83.6534 17.2145L82.6244 18.9295C83.748 19.6037 84.6327 20.5277 85.2858 21.7203L87.04 20.7597ZM83.6689 17.224C82.217 16.3166 80.5745 15.872 78.7709 15.872V17.872C80.2313 17.872 81.5007 18.2274 82.6089 18.92L83.6689 17.224ZM78.7709 15.872C76.9951 15.872 75.3577 16.3185 73.8823 17.2182L74.9235 18.9258C76.072 18.2255 77.3466 17.872 78.7709 17.872V15.872ZM73.8884 17.2145C72.4559 18.074 71.3124 19.2568 70.4626 20.7439L72.1991 21.7361C72.8854 20.5352 73.7899 19.606 74.9174 18.9295L73.8884 17.2145ZM70.4538 20.7597C69.6273 22.2689 69.2269 23.9739 69.2269 25.848H71.2269C71.2269 24.2661 71.5625 22.8991 72.208 21.7203L70.4538 20.7597ZM69.2269 25.848C69.2269 27.6939 69.6289 29.3942 70.4491 30.9277L72.2127 29.9843C71.5609 28.7658 71.2269 27.3941 71.2269 25.848H69.2269ZM70.4577 30.9434C71.3041 32.4599 72.4435 33.6746 73.8729 34.568L74.9329 32.872C73.8022 32.1653 72.8937 31.2041 72.2041 29.9686L70.4577 30.9434ZM73.8977 34.583C75.3711 35.4455 77.003 35.872 78.7709 35.872V33.872C77.3387 33.872 76.0587 33.5305 74.9081 32.857L73.8977 34.583ZM105.849 37.512L105.359 38.3836L105.367 38.3881L105.375 38.3925L105.849 37.512ZM101.001 32.808L100.133 33.3041L100.137 33.3123L100.142 33.3205L101.001 32.808ZM100.905 18.984L100.031 18.4983L100.028 18.5032L100.905 18.984ZM105.513 14.28L106.011 15.1474L106.021 15.1412L105.513 14.28ZM118.665 14.232L118.135 15.0801L118.146 15.0868L118.665 14.232ZM122.745 18.792L121.842 19.2214L121.846 19.2303L121.85 19.2392L122.745 18.792ZM123.561 27L124.239 27.7348L124.254 27.7212L124.268 27.7071L123.561 27ZM103.737 27.576V26.576H102.565L102.749 27.7334L103.737 27.576ZM106.761 33L106.115 33.7634L106.123 33.7701L106.131 33.7766L106.761 33ZM115.977 34.536L116.302 35.4817L116.31 35.4788L116.319 35.4758L115.977 34.536ZM118.521 33.24L117.929 32.4335L117.921 32.44L118.521 33.24ZM120.057 32.712V33.712H120.085L120.112 33.7105L120.057 32.712ZM121.545 33.192L122.206 32.4422L122.199 32.4353L122.191 32.4286L121.545 33.192ZM122.409 34.776L123.407 34.7205L122.409 34.776ZM121.641 36.264L121.033 35.4696L121.026 35.4752L121.019 35.4809L121.641 36.264ZM117.561 38.376L117.245 37.4273L117.239 37.4292L117.561 38.376ZM103.785 23.736L102.801 23.5545L102.583 24.736H103.785V23.736ZM119.769 23.736V24.736H120.919L120.759 23.5967L119.769 23.736ZM117.417 18.696L116.693 19.3857L116.701 19.3943L117.417 18.696ZM112.953 38.192C110.441 38.192 108.24 37.6637 106.323 36.6315L105.375 38.3925C107.618 39.6003 110.152 40.192 112.953 40.192V38.192ZM106.339 36.6404C104.44 35.5724 102.953 34.1271 101.86 32.2955L100.142 33.3205C101.417 35.4569 103.161 37.1476 105.359 38.3836L106.339 36.6404ZM101.869 32.3119C100.813 30.464 100.273 28.3347 100.273 25.896H98.2729C98.2729 28.6413 98.8846 31.12 100.133 33.3041L101.869 32.3119ZM100.273 25.896C100.273 23.4131 100.787 21.2794 101.782 19.4648L100.028 18.5032C98.8472 20.6566 98.2729 23.1309 98.2729 25.896H100.273ZM101.779 19.4696C102.813 17.6086 104.221 16.1744 106.011 15.1474L105.015 13.4126C102.901 14.6256 101.237 16.3274 100.031 18.4984L101.779 19.4696ZM106.021 15.1412C107.802 14.0902 109.863 13.552 112.233 13.552V11.552C109.547 11.552 107.128 12.1658 105.005 13.4188L106.021 15.1412ZM112.233 13.552C114.576 13.552 116.529 14.0761 118.135 15.08L119.195 13.384C117.217 12.1479 114.882 11.552 112.233 11.552V13.552ZM118.146 15.0868C119.766 16.0702 120.995 17.4398 121.842 19.2214L123.648 18.3626C122.639 16.2402 121.148 14.5698 119.184 13.3772L118.146 15.0868ZM121.85 19.2392C122.73 20.9977 123.185 23.0638 123.185 25.464H125.185C125.185 22.8082 124.68 20.4263 123.639 18.3448L121.85 19.2392ZM123.185 25.464C123.185 25.8167 123.075 26.0713 122.854 26.2929L124.268 27.7071C124.878 27.0967 125.185 26.3273 125.185 25.464H123.185ZM122.883 26.2652C122.676 26.4562 122.401 26.576 121.977 26.576V28.576C122.833 28.576 123.614 28.3118 124.239 27.7348L122.883 26.2652ZM121.977 26.576H103.737V28.576H121.977V26.576ZM102.749 27.7334C103.138 30.1711 104.263 32.1965 106.115 33.7634L107.407 32.2366C105.931 30.9875 105.04 29.3969 104.724 27.4186L102.749 27.7334ZM106.131 33.7766C108.025 35.3136 110.319 36.064 112.953 36.064V34.064C110.723 34.064 108.888 33.4384 107.391 32.2234L106.131 33.7766ZM112.953 36.064C114.065 36.064 115.183 35.8664 116.302 35.4817L115.652 33.5903C114.723 33.9096 113.825 34.064 112.953 34.064V36.064ZM116.319 35.4758C117.433 35.0706 118.377 34.5975 119.121 34.04L117.921 32.44C117.384 32.8425 116.633 33.2334 115.635 33.5962L116.319 35.4758ZM119.112 34.0464C119.438 33.8077 119.746 33.712 120.057 33.712V31.712C119.28 31.712 118.564 31.9683 117.93 32.4336L119.112 34.0464ZM120.112 33.7105C120.45 33.6917 120.69 33.7789 120.899 33.9554L122.191 32.4286C121.567 31.9011 120.816 31.6683 120.001 31.7135L120.112 33.7105ZM120.883 33.9418C121.281 34.293 121.397 34.5875 121.41 34.8315L123.407 34.7205C123.357 33.8125 122.897 33.051 122.206 32.4422L120.883 33.9418ZM121.41 34.8315C121.42 35.0117 121.371 35.2115 121.033 35.4696L122.248 37.0584C122.999 36.4845 123.461 35.6923 123.407 34.7205L121.41 34.8315ZM121.019 35.4809C120.041 36.2573 118.791 36.9118 117.245 37.4273L117.877 39.3247C119.594 38.7522 121.064 37.9987 122.263 37.0471L121.019 35.4809ZM117.239 37.4292C115.728 37.9431 114.301 38.192 112.953 38.192V40.192C114.549 40.192 116.194 39.8969 117.883 39.3228L117.239 37.4292ZM112.233 15.68C109.672 15.68 107.509 16.3945 105.847 17.9088L107.194 19.3872C108.412 18.2775 110.058 17.68 112.233 17.68V15.68ZM105.847 17.9088C104.232 19.3807 103.222 21.2793 102.801 23.5545L104.768 23.9175C105.116 22.0327 105.93 20.5393 107.194 19.3872L105.847 17.9088ZM103.785 24.736H119.769V22.736H103.785V24.736ZM120.759 23.5967C120.445 21.3662 119.58 19.4813 118.133 17.9977L116.701 19.3943C117.814 20.5347 118.516 22.0098 118.779 23.8753L120.759 23.5967ZM118.141 18.0063C116.64 16.4299 114.631 15.68 112.233 15.68V17.68C114.186 17.68 115.634 18.2741 116.693 19.3857L118.141 18.0063ZM135.229 16.056H134.229V18.7593L135.989 16.7068L135.229 16.056ZM138.733 13.416L138.32 12.5056L138.312 12.5093L138.733 13.416ZM147.565 13.416L146.998 14.2392L147.014 14.2503L147.03 14.2608L147.565 13.416ZM148.669 15.624L147.701 15.373L147.699 15.3827L147.697 15.3924L148.669 15.624ZM147.709 16.968L148.081 17.8965L148.107 17.8861L148.132 17.8742L147.709 16.968ZM146.029 17.064L145.83 18.044L145.833 18.0446L146.029 17.064ZM136.621 18.936L135.914 18.2289L135.908 18.2349L135.902 18.241L136.621 18.936ZM132.829 38C132.184 38 131.883 37.8392 131.736 37.6929C131.59 37.5466 131.429 37.2459 131.429 36.6H129.429C129.429 37.5541 129.669 38.4534 130.322 39.1071C130.976 39.7608 131.875 40 132.829 40V38ZM131.429 36.6V15.144H129.429V36.6H131.429ZM131.429 15.144C131.429 14.4981 131.59 14.1974 131.736 14.0511C131.883 13.9048 132.184 13.744 132.829 13.744V11.744C131.875 11.744 130.976 11.9832 130.322 12.6369C129.669 13.2906 129.429 14.1899 129.429 15.144H131.429ZM132.829 13.744C133.475 13.744 133.776 13.9048 133.922 14.0511C134.069 14.1974 134.229 14.4981 134.229 15.144H136.229C136.229 14.1899 135.99 13.2906 135.336 12.6369C134.683 11.9832 133.784 11.744 132.829 11.744V13.744ZM134.229 15.144V16.056H136.229V15.144H134.229ZM135.989 16.7068C136.853 15.6984 137.905 14.9043 139.155 14.3227L138.312 12.5093C136.81 13.2077 135.526 14.1736 134.47 15.4052L135.989 16.7068ZM139.147 14.3264C140.418 13.7487 141.796 13.456 143.293 13.456V11.456C141.527 11.456 139.865 11.8033 138.32 12.5056L139.147 14.3264ZM143.293 13.456C145.138 13.456 146.317 13.77 146.998 14.2392L148.133 12.5928C146.957 11.782 145.289 11.456 143.293 11.456V13.456ZM147.03 14.2608C147.413 14.503 147.59 14.7166 147.667 14.8712C147.733 15.004 147.758 15.1536 147.701 15.373L149.637 15.875C149.804 15.2304 149.757 14.58 149.456 13.9768C149.165 13.3954 148.678 12.937 148.1 12.5712L147.03 14.2608ZM147.697 15.3924C147.584 15.8651 147.41 16.0042 147.286 16.0618L148.132 17.8742C148.969 17.4838 149.435 16.7269 149.642 15.8556L147.697 15.3924ZM147.338 16.0395C147.08 16.1427 146.725 16.1833 146.225 16.0834L145.833 18.0446C146.614 18.2007 147.379 18.1773 148.081 17.8965L147.338 16.0395ZM146.228 16.084C144.078 15.6472 142.095 15.603 140.299 15.9905L140.72 17.9455C142.188 17.629 143.885 17.6488 145.83 18.044L146.228 16.084ZM140.299 15.9905C138.522 16.3737 137.039 17.1046 135.914 18.2289L137.328 19.6431C138.124 18.8474 139.233 18.2663 140.72 17.9455L140.299 15.9905ZM135.902 18.241C134.775 19.4073 134.229 20.8817 134.229 22.584H136.229C136.229 21.3423 136.612 20.3847 137.34 19.631L135.902 18.241ZM134.229 22.584V36.6H136.229V22.584H134.229ZM134.229 36.6C134.229 37.2459 134.069 37.5466 133.922 37.6929C133.776 37.8392 133.475 38 132.829 38V40C133.784 40 134.683 39.7608 135.336 39.1071C135.99 38.4534 136.229 37.5541 136.229 36.6H134.229ZM152.429 38.328L151.648 38.9527L151.659 38.9659L151.67 38.9788L152.429 38.328ZM152.429 34.968L151.63 34.3672L151.629 34.368L152.429 34.968ZM163.613 20.088L164.413 20.6888L164.855 20.1002L164.424 19.503L163.613 20.088ZM153.053 5.448L153.864 4.86299L153.859 4.85544L153.853 4.848L153.053 5.448ZM152.573 3.768L153.568 3.87268L152.573 3.768ZM153.245 2.184L152.512 1.50355L152.499 1.51811L152.486 1.53321L153.245 2.184ZM156.653 2.232L157.464 1.64689L157.46 1.64063L156.653 2.232ZM166.973 16.536L166.162 17.1211L166.957 18.2222L167.772 17.1369L166.973 16.536ZM177.725 2.232L176.994 1.54968L176.958 1.58859L176.926 1.63114L177.725 2.232ZM181.085 2.136L181.82 1.45772L181.085 2.136ZM181.709 3.672L182.708 3.61944V3.61944L181.709 3.672ZM181.181 5.448L181.981 6.048L181.998 6.02579L182.013 6.0027L181.181 5.448ZM170.237 20.04L169.437 19.44L168.996 20.028L169.426 20.6244L170.237 20.04ZM180.989 34.968L180.178 35.5524L180.183 35.5603L180.189 35.568L180.989 34.968ZM181.517 36.696L182.516 36.7459L181.517 36.696ZM180.845 38.328L180.112 37.6475L180.099 37.6621L180.086 37.6772L180.845 38.328ZM177.293 38.088L176.482 38.6728L176.495 38.6905L176.508 38.7076L177.293 38.088ZM166.877 23.64L167.688 23.0552L166.895 21.9551L166.079 23.0379L166.877 23.64ZM155.837 38.28L156.544 38.9871L156.594 38.9378L156.636 38.8821L155.837 38.28ZM154.109 38C153.587 38 153.337 37.8503 153.188 37.6772L151.67 38.9788C152.289 39.7017 153.159 40 154.109 40V38ZM153.21 37.7033C152.966 37.3985 152.853 37.0742 152.853 36.696H150.853C150.853 37.5338 151.124 38.2975 151.648 38.9527L153.21 37.7033ZM152.853 36.696C152.853 36.2724 152.975 35.9069 153.229 35.568L151.629 34.368C151.115 35.0531 150.853 35.8396 150.853 36.696H152.853ZM153.229 35.5688L164.413 20.6888L162.814 19.4872L151.63 34.3672L153.229 35.5688ZM164.424 19.503L153.864 4.86299L152.242 6.033L162.802 20.673L164.424 19.503ZM153.853 4.848C153.613 4.52751 153.531 4.217 153.568 3.87268L151.579 3.66331C151.487 4.535 151.725 5.34449 152.253 6.048L153.853 4.848ZM153.568 3.87268C153.611 3.45862 153.757 3.12302 154.004 2.83479L152.486 1.53321C151.965 2.14098 151.663 2.86137 151.579 3.66331L153.568 3.87268ZM153.978 2.86445C154.185 2.64166 154.453 2.512 154.877 2.512V0.511999C153.958 0.511999 153.137 0.830341 152.512 1.50355L153.978 2.86445ZM154.877 2.512C155.526 2.512 155.751 2.69285 155.847 2.82336L157.46 1.64063C156.851 0.811149 155.892 0.511999 154.877 0.511999V2.512ZM155.842 2.81709L166.162 17.1211L167.784 15.9509L157.464 1.64691L155.842 2.81709ZM167.772 17.1369L178.524 2.83286L176.926 1.63114L166.174 15.9351L167.772 17.1369ZM178.456 2.91432C178.691 2.66253 179.005 2.512 179.501 2.512V0.511999C178.525 0.511999 177.655 0.841467 176.994 1.54968L178.456 2.91432ZM179.501 2.512C179.951 2.512 180.191 2.64166 180.35 2.81428L181.82 1.45772C181.211 0.798337 180.395 0.511999 179.501 0.511999V2.512ZM180.35 2.81428C180.564 3.04545 180.69 3.33061 180.711 3.72456L182.708 3.61944C182.664 2.79738 182.375 2.05855 181.82 1.45772L180.35 2.81428ZM180.711 3.72456C180.73 4.08861 180.631 4.47085 180.349 4.8933L182.013 6.0027C182.5 5.27315 182.753 4.47139 182.708 3.61944L180.711 3.72456ZM180.381 4.848L169.437 19.44L171.037 20.64L181.981 6.048L180.381 4.848ZM169.426 20.6244L180.178 35.5524L181.801 34.3836L171.049 19.4556L169.426 20.6244ZM180.189 35.568C180.433 35.8929 180.539 36.2389 180.518 36.6461L182.516 36.7459C182.56 35.8731 182.313 35.0671 181.789 34.368L180.189 35.568ZM180.518 36.6461C180.498 37.0634 180.36 37.3807 180.112 37.6475L181.578 39.0084C182.162 38.3793 182.473 37.6086 182.516 36.7459L180.518 36.6461ZM180.086 37.6772C179.929 37.8605 179.687 38 179.213 38V40C180.147 40 180.993 39.6915 181.604 38.9788L180.086 37.6772ZM179.213 38C178.708 38 178.361 37.8271 178.078 37.4684L176.508 38.7076C177.185 39.5649 178.119 40 179.213 40V38ZM178.104 37.5032L167.688 23.0552L166.066 24.2248L176.482 38.6728L178.104 37.5032ZM166.079 23.0379L155.039 37.6779L156.636 38.8821L167.676 24.2421L166.079 23.0379ZM155.13 37.5729C154.835 37.8675 154.513 38 154.109 38V40C155.049 40 155.879 39.6525 156.544 38.9871L155.13 37.5729Z" fill="black"/>
</g>
<defs>
<filter id="filter0_d" x="0.799999" y="0.511999" width="185.913" height="47.68" filterUnits="userSpaceOnUse" color-interpolation-filters="sRGB">
<feFlood flood-opacity="0" result="BackgroundImageFix"/>
<feColorMatrix in="SourceAlpha" type="matrix" values="0 0 0 0 0 0 0 0 0 0 0 0 0 0 0 0 0 0 127 0" result="hardAlpha"/>
<feOffset dy="4"/>
<feGaussianBlur stdDeviation="2"/>
<feComposite in2="hardAlpha" operator="out"/>
<feColorMatrix type="matrix" values="0 0 0 0 0 0 0 0 0 0 0 0 0 0 0 0 0 0 0.25 0"/>
<feBlend mode="normal" in2="BackgroundImageFix" result="effect1_dropShadow"/>
<feBlend mode="normal" in="SourceGraphic" in2="effect1_dropShadow" result="shape"/>
</filter>
</defs>
</svg>
